<svg xmlns="http://www.w3.org/2000/svg" width="344" height="38" fill="none" viewBox="0 0 344 38"><path fill="#224646" d="M251.96 3.15h-8.04c-8.65 0-15.1 7.14-15.1 15.73 0 8.6 6.45 15.47 15.1 15.47h8.04v3.28h9.56v-3.28h7.98c8.65 0 15.16-6.88 15.16-15.47 0-8.6-6.5-15.73-15.16-15.73h-7.98V0h-9.56v3.15Zm58.6 0h-8.05c-8.65 0-15.1 7.14-15.1 15.73 0 8.6 6.45 15.47 15.1 15.47h8.04v3.28h9.56v-3.28h7.98c8.66 0 15.16-6.88 15.16-15.47 0-8.6-6.5-15.73-15.16-15.73h-7.98V0h-9.56v3.15Zm-84.5 15.92c0-10.94-10.09-18.33-21.52-18.33-11.42 0-21.52 7.39-21.52 18.33 0 10.94 10.1 18.33 21.52 18.33 11.43 0 21.53-7.4 21.53-18.33ZM31.33 29.23l-.8.02H14.09v7.54H4.7v-23.4h9.38V24.3l2.47-3.6h13.6c3.32 0 5.68-1.73 5.68-5.18 0-1.59-.52-2.9-1.41-3.84a5.76 5.76 0 0 0-4.27-1.66H4.7L.25 1.47h30.28c3.28 0 6.24.85 8.62 2.37l.07.05.07.05.07.04.07.05.08.05.07.05.07.05.07.05.06.05.07.05c3.37 2.46 5.43 6.38 5.43 11.19 0 8.1-5.87 13.4-13.96 13.71Zm42.2-3.89L73.3 27a2.4 2.4 0 0 1-2.27 1.71h-5.3l-2.68 7.83h8.36a11.1 11.1 0 0 0 10.3-7.45l9.36-27.5h-9.55l-5.2 15.5-13.57-.02h-5l3.67-2.5-4.56-13.1h-9.4l7.74 23.67 18.31.2Zm77.34-12.77V1.47h-9.25v35.07h9.25V23.7h12.6l8.62 12.84h11.1L171.13 19l11.3-17.53h-10.79l-8.44 13.67h-16.17l3.83-2.57ZM96.74 1.47V36.4h27.33c7.32 0 12.44-5.15 12.44-11.72 0-6.77-5.12-11.43-12.44-11.43h-18.11V9.8h21.44l4.82-8.33H96.74Zm96.45 17.6c0-6.39 4.98-10.43 11.35-10.43 6.3 0 11.3 4.04 11.3 10.43s-5 10.43-11.3 10.43c-6.37 0-11.35-4.04-11.35-10.43Zm-87.23 2.4h17.47c2.85 0 3.8 1.26 3.8 3.22 0 2.09-.89 3.39-3.73 3.39H102.1l3.85-2.6v-4Zm146-9.66v13.88h-7.2c-3.52 0-6.63-3.3-6.63-6.88 0-3.64 2.91-7 6.63-7h7.2Zm9.56 0h7.15c3.7 0 6.62 3.36 6.62 7 0 3.59-3.1 6.88-6.63 6.88h-11.04l3.9-2.61V11.8Zm49.03 0v13.88h-7.2c-3.52 0-6.63-3.3-6.63-6.88 0-3.64 2.91-7 6.63-7h7.2Zm9.56 0h7.15c3.7 0 6.62 3.36 6.62 7 0 3.59-3.1 6.88-6.62 6.88H316.2l3.9-2.61V11.8Z" /></svg>